<svg class="svg-icon" style="width: 1em; height: 1em;vertical-align: middle;fill: currentColor;overflow: hidden;" viewBox="0 0 1024 1024" version="1.1" xmlns="http://www.w3.org/2000/svg"><path d="M771.413333 529.92l-263.68 264.106667a181.333333 181.333333 0 0 1-256-256l341.333334-341.333334a109.653333 109.653333 0 0 1 151.04 0 107.52 107.52 0 0 1 0 151.04l-294.4 293.973334A32 32 0 1 1 401.92 597.333333l218.88-218.453333a42.666667 42.666667 0 0 0-60.586667-60.586667L341.333333 537.6a116.906667 116.906667 0 0 0 0 165.973333 120.32 120.32 0 0 0 165.973334 0l293.973333-294.4a192 192 0 0 0-271.36-271.36l-341.333333 341.333334A266.666667 266.666667 0 0 0 567.893333 853.333333l264.106667-263.68a42.666667 42.666667 0 1 0-60.586667-60.586666z"  /></svg>